<svg xmlns="http://www.w3.org/2000/svg" xmlns:xlink="http://www.w3.org/1999/xlink" version="1.1" x="0px" y="0px" viewBox="0 0 100 125" style="enable-background:new 0 0 100 100;" xml:space="preserve"><g><path d="M21.5,56.1c-0.1,0-0.3,0-0.4-0.1l-3.2-2.3L14.7,56c-0.2,0.2-0.5,0.2-0.7,0s-0.3-0.4-0.2-0.7l1.2-3.8l-3.2-2.3   c-0.2-0.2-0.3-0.4-0.2-0.7c0.1-0.3,0.3-0.4,0.6-0.4h4l1.2-3.8c0.1-0.3,0.3-0.4,0.6-0.4c0,0,0,0,0,0c0.3,0,0.5,0.2,0.6,0.4l1.2,3.8   h4c0.3,0,0.5,0.2,0.6,0.4s0,0.5-0.2,0.7l-3.2,2.3l1.2,3.8c0.1,0.3,0,0.5-0.2,0.7C21.7,56.1,21.6,56.1,21.5,56.1z M15.2,51.7   C15.2,51.7,15.2,51.7,15.2,51.7L15.2,51.7z M12.3,48.4L12.3,48.4C12.3,48.4,12.3,48.4,12.3,48.4z"/></g><g><path d="M37.5,56.1c-0.1,0-0.3,0-0.4-0.1l-3.2-2.3L30.7,56c-0.2,0.2-0.5,0.2-0.7,0s-0.3-0.4-0.2-0.7l1.2-3.8l-3.2-2.3   c-0.2-0.2-0.3-0.4-0.2-0.7c0.1-0.3,0.3-0.4,0.6-0.4h4l1.2-3.8c0.2-0.5,1-0.5,1.2,0l1.2,3.8h4c0.3,0,0.5,0.2,0.6,0.4   c0.1,0.3,0,0.5-0.2,0.7l-3.2,2.3l1.2,3.8c0.1,0.3,0,0.5-0.2,0.7C37.8,56.1,37.7,56.1,37.5,56.1z M31.2,51.7   C31.2,51.7,31.2,51.7,31.2,51.7L31.2,51.7z M39.5,48.4C39.5,48.4,39.5,48.4,39.5,48.4L39.5,48.4z M28.4,48.4L28.4,48.4   C28.4,48.4,28.4,48.4,28.4,48.4z M34.3,44.6L34.3,44.6C34.3,44.6,34.3,44.6,34.3,44.6z"/></g><g><path d="M46.4,56.1c-0.1,0-0.3,0-0.4-0.1c-0.2-0.2-0.3-0.4-0.2-0.7l1.2-3.8l-3.2-2.3c-0.2-0.2-0.3-0.4-0.2-0.7   c0.1-0.3,0.3-0.4,0.6-0.4h4l1.2-3.8c0.2-0.5,1-0.5,1.2,0l1.2,3.8h4c0.3,0,0.5,0.2,0.6,0.4s0,0.5-0.2,0.7l-3.2,2.3l1.2,3.8   c0.1,0.3,0,0.5-0.2,0.7c-0.2,0.2-0.5,0.2-0.7,0L50,53.7L46.8,56C46.7,56.1,46.5,56.1,46.4,56.1z M52.7,51.7L52.7,51.7   C52.7,51.7,52.7,51.7,52.7,51.7z M52.9,51.3L52.9,51.3C52.9,51.3,52.9,51.3,52.9,51.3z M44.4,48.4L44.4,48.4   C44.4,48.4,44.4,48.4,44.4,48.4z M51.9,48.3L51.9,48.3C51.9,48.3,51.9,48.3,51.9,48.3z M50.4,44.6L50.4,44.6   C50.4,44.6,50.4,44.6,50.4,44.6z M49.6,44.6C49.6,44.6,49.6,44.6,49.6,44.6L49.6,44.6z"/></g><g><path d="M69.6,56.1c-0.1,0-0.3,0-0.4-0.1l-3.2-2.3L62.8,56c-0.2,0.2-0.5,0.2-0.7,0c-0.2-0.2-0.3-0.4-0.2-0.7l1.2-3.8l-3.2-2.3   c-0.2-0.2-0.3-0.4-0.2-0.7c0.1-0.3,0.3-0.4,0.6-0.4h4l1.2-3.8c0.2-0.5,1-0.5,1.2,0l1.2,3.8h4c0.3,0,0.5,0.2,0.6,0.4   c0.1,0.3,0,0.5-0.2,0.7L69,51.5l1.2,3.8c0.1,0.3,0,0.5-0.2,0.7C69.9,56.1,69.8,56.1,69.6,56.1z M71.6,48.4   C71.6,48.4,71.6,48.4,71.6,48.4L71.6,48.4z M60.5,48.4L60.5,48.4C60.5,48.4,60.5,48.4,60.5,48.4z M64.2,48.3   C64.2,48.3,64.2,48.3,64.2,48.3L64.2,48.3z M68,48.3L68,48.3C68,48.3,68,48.3,68,48.3z M66.4,44.6L66.4,44.6   C66.4,44.6,66.4,44.6,66.4,44.6z"/></g><g><path d="M85.7,56.1c-0.1,0-0.3,0-0.4-0.1l-3.2-2.3L78.9,56c-0.2,0.2-0.5,0.2-0.7,0s-0.3-0.4-0.2-0.7l1.2-3.8L76,49.2   c-0.2-0.2-0.3-0.4-0.2-0.7s0.3-0.4,0.6-0.4h4l1.2-3.8c0.2-0.5,1-0.5,1.2,0l0,0l1.2,3.8h4c0.3,0,0.5,0.2,0.6,0.4s0,0.5-0.2,0.7   L85,51.5l1.2,3.8c0.1,0.3,0,0.5-0.2,0.7C85.9,56.1,85.8,56.1,85.7,56.1z M85.3,55.6C85.3,55.6,85.3,55.6,85.3,55.6L85.3,55.6z    M81.9,53.5C81.9,53.5,81.9,53.5,81.9,53.5L81.9,53.5z M79.4,51.7C79.4,51.7,79.4,51.7,79.4,51.7L79.4,51.7z M84.8,51.7L84.8,51.7   C84.8,51.7,84.8,51.7,84.8,51.7z M79.3,51.3C79.3,51.3,79.3,51.3,79.3,51.3L79.3,51.3z M85,51.3L85,51.3C85,51.3,85,51.3,85,51.3z    M80.2,48.3C80.2,48.3,80.2,48.3,80.2,48.3L80.2,48.3z"/></g><text x="0" y="115" fill="#000000" font-size="5px" font-weight="bold" font-family="'Helvetica Neue', Helvetica, Arial-Unicode, Arial, Sans-serif">Created by Shiva</text><text x="0" y="120" fill="#000000" font-size="5px" font-weight="bold" font-family="'Helvetica Neue', Helvetica, Arial-Unicode, Arial, Sans-serif">from the Noun Project</text></svg>